<svg xmlns="http://www.w3.org/2000/svg" xmlns:xlink="http://www.w3.org/1999/xlink" version="1.1" x="0px" y="0px" viewBox="0 0 100 125" enable-background="new 0 0 100 100" xml:space="preserve"><g><g><g><path fill="none" stroke="#000000" stroke-linecap="round" stroke-linejoin="round" stroke-miterlimit="10" d="     M28.1043873,75.6209335c0,0,11.8423367-4.8023224,15.1334057-24.4806328     c3.3294678-19.9078999,24.4927063-3.0892296,10.8097,12.7896729"/><path fill="none" stroke="#000000" stroke-linecap="round" stroke-linejoin="round" stroke-miterlimit="10" d="     M53.9481926,56.7571449c-0.9131432,2.6124458-3.3080978,1.6069679-5.4127274-1.6813736     c-1.0504913-1.6413193-2.8493156-3.8211174-1.3392029-6.1402245s3.412262-3.1559982,4.7578545-2.4329376     C53.6861649,47.4333305,54.9751625,53.8190422,53.9481926,56.7571449z"/><path fill="none" stroke="#000000" stroke-linecap="round" stroke-linejoin="round" stroke-miterlimit="10" d="     M31.292511,81.1332169c0,0,2.3798485-5.4573746,6.713089-9.460556c5.6322212-5.2032242,5.9639931-9.0923996,5.9639931-9.0923996     s0.6907349-6.9502449,3.070652-4.8649406c4.0251694,3.526886-0.5503044,8.845562-0.5503044,8.845562     S39.296608,76.7283096,36.0997086,84.4909744"/><path fill="none" stroke="#000000" stroke-linecap="round" stroke-linejoin="round" stroke-miterlimit="10" d="     M26.5838776,70.9659271c0,0,8.5040932-4.4832764,12.7604218-21.9426689c0,0,4.6571655-15.2355423,14.9140778-11.1756058     c0,0,18.7912979,6.5330658,1.0578728,32.0127983c0,0-13.330162,14.8237305-14.5355225,18.2973404"/><path fill="none" stroke="#000000" stroke-linecap="round" stroke-linejoin="round" stroke-miterlimit="10" d="     M43.9254723,89.6705856c0,0,18.0799713-14.8287582,13.4038506-22.7056732"/><path fill="none" stroke="#000000" stroke-linecap="round" stroke-linejoin="round" stroke-miterlimit="10" d="     M67.4882736,48.6704597c0,0-1.3774338,11.7132797-4.6085205,17.3099098     c-0.7481079,1.2958145,0.1554527,5.5670319,0.1554527,5.5670319     c1.3467064,3.9700089-14.0101852,20.3364792-14.0101852,20.3364792"/><path fill="none" stroke="#000000" stroke-linecap="round" stroke-linejoin="round" stroke-miterlimit="10" d="     M73.9574661,39.1812897c0,0,9.8239594,19.9495697-18.5644379,53.4249725"/><path fill="none" stroke="#000000" stroke-linecap="round" stroke-linejoin="round" stroke-miterlimit="10" d="     M75.4534149,77.654808c0,0-5.912056,10.4188385-13.5531158,12.4078674"/><path fill="none" stroke="#000000" stroke-linecap="round" stroke-linejoin="round" stroke-miterlimit="10" d="     M78.8641663,51.5916786c0,0-0.4280548,6.3845139,0.2340469,12.8128777     c0.6596298,6.4043655-3.215004,12.5341797-3.6447983,13.2502518"/><path fill="none" stroke="#000000" stroke-linecap="round" stroke-linejoin="round" stroke-miterlimit="10" d="     M75.1812057,22.7380943c0,0,8.3637543,6.7704754,4.7545242,19.9197617"/><path fill="none" stroke="#000000" stroke-linecap="round" stroke-linejoin="round" stroke-miterlimit="10" d="     M45.5696831,11.2092562c0,0,6.1159286-5.0245667,20.714222,1.7308989"/><path fill="none" stroke="#000000" stroke-linecap="round" stroke-linejoin="round" stroke-miterlimit="10" d="     M31.6072044,16.3273487c0,0,3.7580833-4.6797543,8.6447449-4.8305368"/><path fill="none" stroke="#000000" stroke-linecap="round" stroke-linejoin="round" stroke-miterlimit="10" d="     M30.1052685,20.0416088c0,0,19.9156437-16.6809235,42.9300385,0.0061417"/><path fill="none" stroke="#000000" stroke-linecap="round" stroke-linejoin="round" stroke-miterlimit="10" d="     M27.7687588,67.4477539c0,0,2.0410004-7.5867271,7.2222424-6.8464508"/><path fill="none" stroke="#000000" stroke-linecap="round" stroke-linejoin="round" stroke-miterlimit="10" d="     M30.9995556,54.2831917c-4.7219963,4.3281708-5.7186718,14.2226753-5.7186718,14.2226753"/><path fill="none" stroke="#000000" stroke-linecap="round" stroke-linejoin="round" stroke-miterlimit="10" d="     M30.3755817,45.7301102c0,0-3.0858498,8.2498817,0.6239738,8.5530815s3.0653667-7.0447655,5.2247257-11.378212     c0.6015739-1.2072525,4.0433846-8.672718,13.9470634-10.1170578c9.9036827-1.4443417,16.0421486,9.6692886,16.0421486,9.6692886     s1.7028427,3.4987679,1.2747803,6.2132492"/><path fill="none" stroke="#000000" stroke-linecap="round" stroke-linejoin="round" stroke-miterlimit="10" d="     M51.0340385,28.5087395c0,0,17.3554955,0.8469086,14.5936165,12.9994583"/><path fill="none" stroke="#000000" stroke-linecap="round" stroke-linejoin="round" stroke-miterlimit="10" d="     M32.1598206,42.1598969c0,0,11.7722244-18.0590458,18.0115242-9.3719749"/><path fill="none" stroke="#000000" stroke-linecap="round" stroke-linejoin="round" stroke-miterlimit="10" d="     M22.6015797,58.6892624c0,0,3.8110905-24.7630577,17.9590702-31.0806046s24.4778633,0.8539467,26.6639748,4.8623848     s8.5023575,12.2872772,2.0670166,30.6983833c0.0268326,0.0533447-2.711647,6.6928253-6.0192184,8.955719"/><path fill="none" stroke="#000000" stroke-linecap="round" stroke-linejoin="round" stroke-miterlimit="10" d="     M30.7493134,30.3855343c3.382431-3.5173454,7.8928223-6.7537498,13.8335381-8.6245174"/><path fill="none" stroke="#000000" stroke-linecap="round" stroke-linejoin="round" stroke-miterlimit="10" d="     M21.5619698,46.219059c0,0,1.8315735-7.2352066,7.6174736-14.0905647"/><path fill="none" stroke="#000000" stroke-linecap="round" stroke-linejoin="round" stroke-miterlimit="10" d="     M22.727169,34.6601906c0,0,10.1022377-22.3618584,35.0390968-17.8657742c0,0,12.2414703,1.6631489,15.1185532,11.4170036     c2.8770752,9.7538586,4.4461975,3.3169537,7.6183472,17.1568012s2.3958359,15.7841263,2.3958359,15.7841263"/><path fill="none" stroke="#000000" stroke-linecap="round" stroke-linejoin="round" stroke-miterlimit="10" d="     M47.5831985,21.1629639c0,0,19.4676514-4.6466579,25.557518,15.1637535"/></g><path fill="none" stroke="#000000" stroke-linecap="round" stroke-linejoin="round" stroke-miterlimit="10" d="    M43.304245,77.9981689c-2.8361816,3.9290848-4.9370651,7.9362411-4.9370651,7.9362411"/><path fill="none" stroke="#000000" stroke-linecap="round" stroke-linejoin="round" stroke-miterlimit="10" d="    M54.1841621,63.7815514c0,0-6.2759552,6.6885414-8.8655853,11.4245872"/></g><path fill="none" stroke="#000000" stroke-linecap="round" stroke-linejoin="round" stroke-miterlimit="10" d="   M74.0764999,59.9312973c0,0,3.7230911,4.6309814,0.5015335,10.7774277c-3.22155,6.1464462-8.233284,11.9593964-8.233284,11.9593964   "/><path fill="none" stroke="#000000" stroke-linecap="round" stroke-linejoin="round" stroke-miterlimit="10" d="   M42.4363251,11.2782087c0,0,3.2698936-0.8536358,6.4700928,1.4937983"/></g><text x="0" y="115" fill="#000000" font-size="5px" font-weight="bold" font-family="'Helvetica Neue', Helvetica, Arial-Unicode, Arial, Sans-serif">Created by Gabubie</text><text x="0" y="120" fill="#000000" font-size="5px" font-weight="bold" font-family="'Helvetica Neue', Helvetica, Arial-Unicode, Arial, Sans-serif">from the Noun Project</text></svg>